<mxfile host="app.diagrams.net" agent="Mozilla/5.0 (Windows NT 10.0; Win64; x64; rv:139.0) Gecko/20100101 Firefox/139.0" version="27.0.9">
  <diagram name="Page-1" id="YVjg0XWY-qUcC3FnshKs">
    <mxGraphModel dx="1469" dy="813" grid="1" gridSize="10" guides="1" tooltips="1" connect="1" arrows="1" fold="1" page="1" pageScale="1" pageWidth="827" pageHeight="1169" math="0" shadow="0">
      <root>
        <mxCell id="0" />
        <mxCell id="1" parent="0" />
        <mxCell id="g4sFo7MqEOSm3uaTC7kR-3" style="edgeStyle=orthogonalEdgeStyle;rounded=0;orthogonalLoop=1;jettySize=auto;html=1;entryX=0;entryY=0.5;entryDx=0;entryDy=0;" parent="1" source="ujMdUVni7c45ogj6qdBH-1" target="ujMdUVni7c45ogj6qdBH-2" edge="1">
          <mxGeometry relative="1" as="geometry" />
        </mxCell>
        <mxCell id="ujMdUVni7c45ogj6qdBH-1" value="&lt;font style=&quot;font-size: 22px; color: light-dark(rgb(255, 255, 255), rgb(237, 237, 237));&quot;&gt;Mulitple Input&lt;/font&gt;" style="rounded=0;whiteSpace=wrap;html=1;rotation=-90;fillColor=light-dark(#5ba457, #1f2f1e);strokeColor=light-dark(#000000, #446e2c);horizontal=0;textDirection=vertical-rl;strokeWidth=2;" parent="1" vertex="1">
          <mxGeometry x="-10" y="110" width="120" height="60" as="geometry" />
        </mxCell>
        <mxCell id="ujMdUVni7c45ogj6qdBH-10" style="edgeStyle=orthogonalEdgeStyle;rounded=0;orthogonalLoop=1;jettySize=auto;html=1;entryX=0;entryY=0.5;entryDx=0;entryDy=0;" parent="1" source="ujMdUVni7c45ogj6qdBH-2" target="g4sFo7MqEOSm3uaTC7kR-1" edge="1">
          <mxGeometry relative="1" as="geometry" />
        </mxCell>
        <mxCell id="ujMdUVni7c45ogj6qdBH-2" value="&lt;font style=&quot;font-size: 22px;&quot;&gt;PreDeblur Module&lt;/font&gt;" style="rounded=1;whiteSpace=wrap;html=1;fillColor=#1ba1e2;strokeColor=#006EAF;fontColor=#ffffff;" parent="1" vertex="1">
          <mxGeometry x="130" y="95" width="120" height="90" as="geometry" />
        </mxCell>
        <mxCell id="ujMdUVni7c45ogj6qdBH-11" style="edgeStyle=orthogonalEdgeStyle;rounded=0;orthogonalLoop=1;jettySize=auto;html=1;entryX=0;entryY=0.5;entryDx=0;entryDy=0;" parent="1" source="ujMdUVni7c45ogj6qdBH-3" target="ujMdUVni7c45ogj6qdBH-4" edge="1">
          <mxGeometry relative="1" as="geometry" />
        </mxCell>
        <mxCell id="ujMdUVni7c45ogj6qdBH-3" value="&lt;font style=&quot;font-size: 22px;&quot;&gt;PCD Align Module&lt;/font&gt;" style="rounded=1;whiteSpace=wrap;html=1;fillColor=#fff2cc;strokeColor=#d6b656;" parent="1" vertex="1">
          <mxGeometry x="440" y="95" width="120" height="90" as="geometry" />
        </mxCell>
        <mxCell id="ujMdUVni7c45ogj6qdBH-12" style="edgeStyle=orthogonalEdgeStyle;rounded=0;orthogonalLoop=1;jettySize=auto;html=1;entryX=0;entryY=0.5;entryDx=0;entryDy=0;" parent="1" source="ujMdUVni7c45ogj6qdBH-4" target="ujMdUVni7c45ogj6qdBH-5" edge="1">
          <mxGeometry relative="1" as="geometry" />
        </mxCell>
        <mxCell id="ujMdUVni7c45ogj6qdBH-4" value="&lt;font style=&quot;font-size: 22px;&quot;&gt;Aligned Features&lt;/font&gt;" style="rounded=1;whiteSpace=wrap;html=1;fillColor=#60a917;fontColor=#ffffff;strokeColor=#2D7600;" parent="1" vertex="1">
          <mxGeometry x="593.5" y="95" width="120" height="90" as="geometry" />
        </mxCell>
        <mxCell id="ujMdUVni7c45ogj6qdBH-13" style="edgeStyle=orthogonalEdgeStyle;rounded=0;orthogonalLoop=1;jettySize=auto;html=1;entryX=0;entryY=0.5;entryDx=0;entryDy=0;" parent="1" source="ujMdUVni7c45ogj6qdBH-5" target="ujMdUVni7c45ogj6qdBH-6" edge="1">
          <mxGeometry relative="1" as="geometry" />
        </mxCell>
        <mxCell id="ujMdUVni7c45ogj6qdBH-5" value="&lt;font style=&quot;font-size: 22px;&quot;&gt;TSA Fusion Module&lt;/font&gt;" style="rounded=1;whiteSpace=wrap;html=1;fillColor=#fa6800;fontColor=#000000;strokeColor=#C73500;" parent="1" vertex="1">
          <mxGeometry x="750" y="95" width="120" height="90" as="geometry" />
        </mxCell>
        <mxCell id="ujMdUVni7c45ogj6qdBH-14" style="edgeStyle=orthogonalEdgeStyle;rounded=0;orthogonalLoop=1;jettySize=auto;html=1;entryX=0;entryY=0.5;entryDx=0;entryDy=0;" parent="1" source="ujMdUVni7c45ogj6qdBH-6" target="ujMdUVni7c45ogj6qdBH-7" edge="1">
          <mxGeometry relative="1" as="geometry" />
        </mxCell>
        <mxCell id="ujMdUVni7c45ogj6qdBH-6" value="&lt;font style=&quot;font-size: 17px;&quot;&gt;Reconstruction Module&lt;/font&gt;" style="rounded=1;whiteSpace=wrap;html=1;fillColor=#1ba1e2;fontColor=#ffffff;strokeColor=#006EAF;" parent="1" vertex="1">
          <mxGeometry x="900" y="95" width="120" height="90" as="geometry" />
        </mxCell>
        <mxCell id="ujMdUVni7c45ogj6qdBH-15" style="edgeStyle=orthogonalEdgeStyle;rounded=0;orthogonalLoop=1;jettySize=auto;html=1;entryX=0.5;entryY=0;entryDx=0;entryDy=0;" parent="1" source="ujMdUVni7c45ogj6qdBH-7" target="ujMdUVni7c45ogj6qdBH-8" edge="1">
          <mxGeometry relative="1" as="geometry" />
        </mxCell>
        <mxCell id="ujMdUVni7c45ogj6qdBH-7" value="&lt;font style=&quot;font-size: 22px;&quot;&gt;Upsampling&lt;/font&gt;" style="rounded=1;whiteSpace=wrap;html=1;fillColor=#f8cecc;strokeColor=#b85450;" parent="1" vertex="1">
          <mxGeometry x="1050" y="95" width="120" height="90" as="geometry" />
        </mxCell>
        <mxCell id="ujMdUVni7c45ogj6qdBH-8" value="&lt;font style=&quot;font-size: 22px;&quot;&gt;&lt;span style=&quot;color: light-dark(rgb(255, 255, 255), rgb(237, 237, 237));&quot;&gt;Multiple Output&lt;/span&gt;&lt;/font&gt;" style="rounded=0;whiteSpace=wrap;html=1;rotation=-90;fillColor=light-dark(#5ba457, #1f2f1e);strokeColor=light-dark(#000000, #446e2c);horizontal=0;textDirection=vertical-rl;strokeWidth=2;" parent="1" vertex="1">
          <mxGeometry x="1170" y="110" width="120" height="60" as="geometry" />
        </mxCell>
        <mxCell id="g4sFo7MqEOSm3uaTC7kR-2" style="edgeStyle=orthogonalEdgeStyle;rounded=0;orthogonalLoop=1;jettySize=auto;html=1;entryX=0;entryY=0.5;entryDx=0;entryDy=0;" parent="1" source="g4sFo7MqEOSm3uaTC7kR-1" target="ujMdUVni7c45ogj6qdBH-3" edge="1">
          <mxGeometry relative="1" as="geometry" />
        </mxCell>
        <mxCell id="g4sFo7MqEOSm3uaTC7kR-1" value="&lt;font style=&quot;font-size: 22px; color: light-dark(rgb(255, 255, 255), rgb(237, 237, 237));&quot;&gt;Features Extractor&lt;/font&gt;" style="rounded=1;whiteSpace=wrap;html=1;fillColor=#a0522d;strokeColor=#6D1F00;fontColor=#ffffff;" parent="1" vertex="1">
          <mxGeometry x="290" y="95" width="120" height="90" as="geometry" />
        </mxCell>
      </root>
    </mxGraphModel>
  </diagram>
</mxfile>
